solid OpenSCAD_Model
  facet normal -1 0 0
    outer loop
      vertex 0 5.5 -0.5
      vertex 0 3.3 1
      vertex 0 5.5 2.2
    endloop
  endfacet
  facet normal -1 0 0
    outer loop
      vertex 0 5.5 -0.5
      vertex 0 2.2 1
      vertex 0 3.3 1
    endloop
  endfacet
  facet normal -1 0 0
    outer loop
      vertex 0 0 -0.5
      vertex 0 2.2 1
      vertex 0 5.5 -0.5
    endloop
  endfacet
  facet normal -1 0 0
    outer loop
      vertex 0 0 2.2
      vertex 0 2.2 1
      vertex 0 0 -0.5
    endloop
  endfacet
  facet normal -1 0 0
    outer loop
      vertex 0 2.2 1
      vertex 0 0 2.2
      vertex 0 2.2 2.2
    endloop
  endfacet
  facet normal -1 -0 0
    outer loop
      vertex 0 5.5 2.2
      vertex 0 3.3 1
      vertex 0 3.3 2.2
    endloop
  endfacet
  facet normal 0 0 1
    outer loop
      vertex 0.2 2.2 2.2
      vertex 0 2.2 2.2
      vertex 0.2 0.2 2.2
    endloop
  endfacet
  facet normal 0 0 1
    outer loop
      vertex 10.5 5.5 2.2
      vertex 10.3 5.3 2.2
      vertex 10.5 0 2.2
    endloop
  endfacet
  facet normal 0 0 1
    outer loop
      vertex 10.5 5.5 2.2
      vertex 0.2 5.3 2.2
      vertex 10.3 5.3 2.2
    endloop
  endfacet
  facet normal -0 0 1
    outer loop
      vertex 0 5.5 2.2
      vertex 0.2 5.3 2.2
      vertex 10.5 5.5 2.2
    endloop
  endfacet
  facet normal 0 0 1
    outer loop
      vertex 0 3.3 2.2
      vertex 0.2 5.3 2.2
      vertex 0 5.5 2.2
    endloop
  endfacet
  facet normal 0 0 1
    outer loop
      vertex 0.2 5.3 2.2
      vertex 0 3.3 2.2
      vertex 0.2 3.3 2.2
    endloop
  endfacet
  facet normal -0 0 1
    outer loop
      vertex 10.3 0.2 2.2
      vertex 10.5 0 2.2
      vertex 10.3 5.3 2.2
    endloop
  endfacet
  facet normal -0 0 1
    outer loop
      vertex 0.2 0.2 2.2
      vertex 10.5 0 2.2
      vertex 10.3 0.2 2.2
    endloop
  endfacet
  facet normal 0 0 1
    outer loop
      vertex 0.2 0.2 2.2
      vertex 0 0 2.2
      vertex 10.5 0 2.2
    endloop
  endfacet
  facet normal 0 0 1
    outer loop
      vertex 0 0 2.2
      vertex 0.2 0.2 2.2
      vertex 0 2.2 2.2
    endloop
  endfacet
  facet normal 1 -0 0
    outer loop
      vertex 10.5 0 2.2
      vertex 10.5 5.5 -0.5
      vertex 10.5 5.5 2.2
    endloop
  endfacet
  facet normal 1 0 0
    outer loop
      vertex 10.5 5.5 -0.5
      vertex 10.5 0 2.2
      vertex 10.5 0 -0.5
    endloop
  endfacet
  facet normal 0 1 0
    outer loop
      vertex 10.5 5.5 2.2
      vertex 6.75 5.5 -0.0999994
      vertex 0 5.5 2.2
    endloop
  endfacet
  facet normal 0 1 -0
    outer loop
      vertex 10.5 5.5 -0.5
      vertex 6.75 5.5 -0.0999994
      vertex 10.5 5.5 2.2
    endloop
  endfacet
  facet normal 0 1 0
    outer loop
      vertex 6.75 5.5 -0.4
      vertex 10.5 5.5 -0.5
      vertex 3.75 5.5 -0.4
    endloop
  endfacet
  facet normal 0 1 0
    outer loop
      vertex 6.75 5.5 -0.0999994
      vertex 10.5 5.5 -0.5
      vertex 6.75 5.5 -0.4
    endloop
  endfacet
  facet normal 0 1 -0
    outer loop
      vertex 3.75 5.5 -0.0999994
      vertex 0 5.5 2.2
      vertex 6.75 5.5 -0.0999994
    endloop
  endfacet
  facet normal 0 1 0
    outer loop
      vertex 0 5.5 -0.5
      vertex 3.75 5.5 -0.0999994
      vertex 3.75 5.5 -0.4
    endloop
  endfacet
  facet normal 0 1 0
    outer loop
      vertex 3.75 5.5 -0.0999994
      vertex 0 5.5 -0.5
      vertex 0 5.5 2.2
    endloop
  endfacet
  facet normal 0 1 0
    outer loop
      vertex 0 5.5 -0.5
      vertex 3.75 5.5 -0.4
      vertex 10.5 5.5 -0.5
    endloop
  endfacet
  facet normal 0 -1 0
    outer loop
      vertex 0 0 2.2
      vertex 3.75 0 -0.0999994
      vertex 10.5 0 2.2
    endloop
  endfacet
  facet normal 0 -1 0
    outer loop
      vertex 0 0 -0.5
      vertex 3.75 0 -0.0999994
      vertex 0 0 2.2
    endloop
  endfacet
  facet normal 0 -1 -0
    outer loop
      vertex 3.75 0 -0.4
      vertex 0 0 -0.5
      vertex 6.75 0 -0.4
    endloop
  endfacet
  facet normal 0 -1 -0
    outer loop
      vertex 3.75 0 -0.0999994
      vertex 0 0 -0.5
      vertex 3.75 0 -0.4
    endloop
  endfacet
  facet normal 0 -1 0
    outer loop
      vertex 6.75 0 -0.0999994
      vertex 10.5 0 2.2
      vertex 3.75 0 -0.0999994
    endloop
  endfacet
  facet normal 0 -1 0
    outer loop
      vertex 10.5 0 -0.5
      vertex 6.75 0 -0.0999994
      vertex 6.75 0 -0.4
    endloop
  endfacet
  facet normal 0 -1 0
    outer loop
      vertex 6.75 0 -0.0999994
      vertex 10.5 0 -0.5
      vertex 10.5 0 2.2
    endloop
  endfacet
  facet normal 0 -1 0
    outer loop
      vertex 10.5 0 -0.5
      vertex 6.75 0 -0.4
      vertex 0 0 -0.5
    endloop
  endfacet
  facet normal 1 0 0
    outer loop
      vertex 0.2 2.2 2.2
      vertex 0.2 0.2 2.2
      vertex 0.2 2.2 1
    endloop
  endfacet
  facet normal 1 0 0
    outer loop
      vertex 0.2 3.3 1
      vertex 0.2 5.3 2.2
      vertex 0.2 3.3 2.2
    endloop
  endfacet
  facet normal 1 0 0
    outer loop
      vertex 0.2 5.3 2.2
      vertex 0.2 3.3 1
      vertex 0.2 5.3 0.2
    endloop
  endfacet
  facet normal 1 -0 0
    outer loop
      vertex 0.2 2.2 1
      vertex 0.2 5.3 0.2
      vertex 0.2 3.3 1
    endloop
  endfacet
  facet normal 1 0 0
    outer loop
      vertex 0.2 2.2 1
      vertex 0.2 0.2 0.2
      vertex 0.2 5.3 0.2
    endloop
  endfacet
  facet normal 1 0 0
    outer loop
      vertex 0.2 0.2 0.2
      vertex 0.2 2.2 1
      vertex 0.2 0.2 2.2
    endloop
  endfacet
  facet normal -1 0 0
    outer loop
      vertex 10.3 0.2 0.2
      vertex 10.3 5.3 2.2
      vertex 10.3 5.3 0.2
    endloop
  endfacet
  facet normal -1 -0 0
    outer loop
      vertex 10.3 5.3 2.2
      vertex 10.3 0.2 0.2
      vertex 10.3 0.2 2.2
    endloop
  endfacet
  facet normal 0 -1 0
    outer loop
      vertex 0.2 5.3 0.2
      vertex 10.3 5.3 2.2
      vertex 0.2 5.3 2.2
    endloop
  endfacet
  facet normal 0 -1 -0
    outer loop
      vertex 10.3 5.3 2.2
      vertex 0.2 5.3 0.2
      vertex 10.3 5.3 0.2
    endloop
  endfacet
  facet normal -0 0 1
    outer loop
      vertex 0.2 5.3 0.2
      vertex 10.3 0.2 0.2
      vertex 10.3 5.3 0.2
    endloop
  endfacet
  facet normal 0 0 1
    outer loop
      vertex 10.3 0.2 0.2
      vertex 0.2 5.3 0.2
      vertex 0.2 0.2 0.2
    endloop
  endfacet
  facet normal 0 1 -0
    outer loop
      vertex 10.3 0.2 0.2
      vertex 0.2 0.2 2.2
      vertex 10.3 0.2 2.2
    endloop
  endfacet
  facet normal 0 1 0
    outer loop
      vertex 0.2 0.2 2.2
      vertex 10.3 0.2 0.2
      vertex 0.2 0.2 0.2
    endloop
  endfacet
  facet normal 0 -1 0
    outer loop
      vertex 0 3.3 1
      vertex 0.2 3.3 2.2
      vertex 0 3.3 2.2
    endloop
  endfacet
  facet normal 0 -1 -0
    outer loop
      vertex 0.2 3.3 2.2
      vertex 0 3.3 1
      vertex 0.2 3.3 1
    endloop
  endfacet
  facet normal -0 0 1
    outer loop
      vertex 0 3.3 1
      vertex 0.2 2.2 1
      vertex 0.2 3.3 1
    endloop
  endfacet
  facet normal 0 0 1
    outer loop
      vertex 0.2 2.2 1
      vertex 0 3.3 1
      vertex 0 2.2 1
    endloop
  endfacet
  facet normal 0 1 -0
    outer loop
      vertex 0.2 2.2 1
      vertex 0 2.2 2.2
      vertex 0.2 2.2 2.2
    endloop
  endfacet
  facet normal 0 1 0
    outer loop
      vertex 0 2.2 2.2
      vertex 0.2 2.2 1
      vertex 0 2.2 1
    endloop
  endfacet
  facet normal 0 0 -1
    outer loop
      vertex 0 0 -0.5
      vertex 10.5 5.5 -0.5
      vertex 10.5 0 -0.5
    endloop
  endfacet
  facet normal -0 0 -1
    outer loop
      vertex 10.5 5.5 -0.5
      vertex 0 0 -0.5
      vertex 0 5.5 -0.5
    endloop
  endfacet
  facet normal 1 -0 0
    outer loop
      vertex 3.75 0 -0.0999994
      vertex 3.75 5.5 -0.4
      vertex 3.75 5.5 -0.0999994
    endloop
  endfacet
  facet normal 1 0 0
    outer loop
      vertex 3.75 5.5 -0.4
      vertex 3.75 0 -0.0999994
      vertex 3.75 0 -0.4
    endloop
  endfacet
  facet normal 0 0 -1
    outer loop
      vertex 3.75 0 -0.0999994
      vertex 6.75 5.5 -0.0999994
      vertex 6.75 0 -0.0999994
    endloop
  endfacet
  facet normal -0 0 -1
    outer loop
      vertex 6.75 5.5 -0.0999994
      vertex 3.75 0 -0.0999994
      vertex 3.75 5.5 -0.0999994
    endloop
  endfacet
  facet normal -1 0 0
    outer loop
      vertex 6.75 0 -0.4
      vertex 6.75 5.5 -0.0999994
      vertex 6.75 5.5 -0.4
    endloop
  endfacet
  facet normal -1 -0 0
    outer loop
      vertex 6.75 5.5 -0.0999994
      vertex 6.75 0 -0.4
      vertex 6.75 0 -0.0999994
    endloop
  endfacet
  facet normal -0 0 1
    outer loop
      vertex 3.75 5.5 -0.4
      vertex 6.75 0 -0.4
      vertex 6.75 5.5 -0.4
    endloop
  endfacet
  facet normal 0 0 1
    outer loop
      vertex 6.75 0 -0.4
      vertex 3.75 5.5 -0.4
      vertex 3.75 0 -0.4
    endloop
  endfacet
  facet normal -1 0 0
    outer loop
      vertex 0 -6 2.2
      vertex 0 -3.8 2.5
      vertex 0 -3.8 2.2
    endloop
  endfacet
  facet normal -1 -0 0
    outer loop
      vertex 0 -3.8 2.5
      vertex 0 -6 2.2
      vertex 0 -6 2.5
    endloop
  endfacet
  facet normal -1 0 0
    outer loop
      vertex 0 -2.7 2.2
      vertex 0 -0.5 2.5
      vertex 0 -0.5 2.2
    endloop
  endfacet
  facet normal -1 -0 0
    outer loop
      vertex 0 -0.5 2.5
      vertex 0 -2.7 2.2
      vertex 0 -2.7 2.5
    endloop
  endfacet
  facet normal 0 0 1
    outer loop
      vertex 10.5 -0.5 2.5
      vertex 7.5 -3.2 2.5
      vertex 10.5 -6 2.5
    endloop
  endfacet
  facet normal 0 0 1
    outer loop
      vertex 10.5 -0.5 2.5
      vertex 5.4 -3.2 2.5
      vertex 7.5 -3.2 2.5
    endloop
  endfacet
  facet normal 0 0 1
    outer loop
      vertex 2.2 -3.8 2.5
      vertex 5.4 -3.2 2.5
      vertex 2.2 -2.7 2.5
    endloop
  endfacet
  facet normal -0 0 1
    outer loop
      vertex 0 -0.5 2.5
      vertex 5.4 -3.2 2.5
      vertex 10.5 -0.5 2.5
    endloop
  endfacet
  facet normal 0 0 1
    outer loop
      vertex 5.4 -3.2 2.5
      vertex 0 -0.5 2.5
      vertex 2.2 -2.7 2.5
    endloop
  endfacet
  facet normal 0 0 1
    outer loop
      vertex 2.2 -2.7 2.5
      vertex 0 -0.5 2.5
      vertex 0 -2.7 2.5
    endloop
  endfacet
  facet normal -0 0 1
    outer loop
      vertex 7.5 -5.3 2.5
      vertex 10.5 -6 2.5
      vertex 7.5 -3.2 2.5
    endloop
  endfacet
  facet normal -0 0 1
    outer loop
      vertex 5.4 -5.3 2.5
      vertex 10.5 -6 2.5
      vertex 7.5 -5.3 2.5
    endloop
  endfacet
  facet normal 0 0 1
    outer loop
      vertex 5.4 -3.2 2.5
      vertex 2.2 -3.8 2.5
      vertex 5.4 -5.3 2.5
    endloop
  endfacet
  facet normal 0 0 1
    outer loop
      vertex 0 -6 2.5
      vertex 2.2 -3.8 2.5
      vertex 0 -3.8 2.5
    endloop
  endfacet
  facet normal 0 0 1
    outer loop
      vertex 5.4 -5.3 2.5
      vertex 0 -6 2.5
      vertex 10.5 -6 2.5
    endloop
  endfacet
  facet normal 0 0 1
    outer loop
      vertex 2.2 -3.8 2.5
      vertex 0 -6 2.5
      vertex 5.4 -5.3 2.5
    endloop
  endfacet
  facet normal 1 -0 0
    outer loop
      vertex 10.5 -6 2.5
      vertex 10.5 -0.5 2.2
      vertex 10.5 -0.5 2.5
    endloop
  endfacet
  facet normal 1 0 0
    outer loop
      vertex 10.5 -0.5 2.2
      vertex 10.5 -6 2.5
      vertex 10.5 -6 2.2
    endloop
  endfacet
  facet normal 0 1 -0
    outer loop
      vertex 10.5 -0.5 2.2
      vertex 0 -0.5 2.5
      vertex 10.5 -0.5 2.5
    endloop
  endfacet
  facet normal 0 1 0
    outer loop
      vertex 0 -0.5 2.5
      vertex 10.5 -0.5 2.2
      vertex 0 -0.5 2.2
    endloop
  endfacet
  facet normal 0 0 -1
    outer loop
      vertex 0 -2.7 2.2
      vertex 0.4 -0.900001 2.2
      vertex 2.2 -2.7 2.2
    endloop
  endfacet
  facet normal 0 0 -1
    outer loop
      vertex 0 -0.5 2.2
      vertex 0.2 -0.900001 2.2
      vertex 0 -2.7 2.2
    endloop
  endfacet
  facet normal -0 0 -1
    outer loop
      vertex 0.4 -0.900001 2.2
      vertex 0 -2.7 2.2
      vertex 0.2 -0.900001 2.2
    endloop
  endfacet
  facet normal 0 0 -1
    outer loop
      vertex 10.1 -5.6 2.2
      vertex 10.3 -0.900001 2.2
      vertex 10.3 -5.6 2.2
    endloop
  endfacet
  facet normal -0 0 -1
    outer loop
      vertex 10.3 -0.900001 2.2
      vertex 10.1 -5.6 2.2
      vertex 10.1 -0.900001 2.2
    endloop
  endfacet
  facet normal 0 0 -1
    outer loop
      vertex 10.3 -5.6 2.2
      vertex 10.5 -6 2.2
      vertex 10.3 -5.8 2.2
    endloop
  endfacet
  facet normal 0 0 -1
    outer loop
      vertex 10.5 -6 2.2
      vertex 10.1 -5.8 2.2
      vertex 10.3 -5.8 2.2
    endloop
  endfacet
  facet normal 0 0 -1
    outer loop
      vertex 7.5 -5.3 2.2
      vertex 10.1 -5.6 2.2
      vertex 10.1 -5.8 2.2
    endloop
  endfacet
  facet normal 0 0 -1
    outer loop
      vertex 10.1 -5.6 2.2
      vertex 7.5 -3.2 2.2
      vertex 10.1 -0.900001 2.2
    endloop
  endfacet
  facet normal 0 0 -1
    outer loop
      vertex 10.1 -5.6 2.2
      vertex 7.5 -5.3 2.2
      vertex 7.5 -3.2 2.2
    endloop
  endfacet
  facet normal 0 0 -1
    outer loop
      vertex 10.5 -6 2.2
      vertex 7.5 -5.3 2.2
      vertex 10.1 -5.8 2.2
    endloop
  endfacet
  facet normal 0 0 -1
    outer loop
      vertex 10.5 -6 2.2
      vertex 5.4 -5.3 2.2
      vertex 7.5 -5.3 2.2
    endloop
  endfacet
  facet normal 0 0 -1
    outer loop
      vertex 5.4 -5.3 2.2
      vertex 2.2 -3.8 2.2
      vertex 5.4 -3.2 2.2
    endloop
  endfacet
  facet normal -0 0 -1
    outer loop
      vertex 5.4 -5.3 2.2
      vertex 0.4 -5.8 2.2
      vertex 2.2 -3.8 2.2
    endloop
  endfacet
  facet normal 0 0 -1
    outer loop
      vertex 0 -6 2.2
      vertex 5.4 -5.3 2.2
      vertex 10.5 -6 2.2
    endloop
  endfacet
  facet normal 0 0 -1
    outer loop
      vertex 5.4 -5.3 2.2
      vertex 0 -6 2.2
      vertex 0.4 -5.8 2.2
    endloop
  endfacet
  facet normal -0 0 -1
    outer loop
      vertex 0.2 -5.8 2.2
      vertex 0 -6 2.2
      vertex 0.2 -5.6 2.2
    endloop
  endfacet
  facet normal -0 0 -1
    outer loop
      vertex 0.4 -5.8 2.2
      vertex 0 -6 2.2
      vertex 0.2 -5.8 2.2
    endloop
  endfacet
  facet normal 0 0 -1
    outer loop
      vertex 10.5 -6 2.2
      vertex 10.3 -5.6 2.2
      vertex 10.5 -0.5 2.2
    endloop
  endfacet
  facet normal 0 0 -1
    outer loop
      vertex 10.3 -0.900001 2.2
      vertex 10.5 -0.5 2.2
      vertex 10.3 -5.6 2.2
    endloop
  endfacet
  facet normal 0 0 -1
    outer loop
      vertex 10.3 -0.700001 2.2
      vertex 10.5 -0.5 2.2
      vertex 10.3 -0.900001 2.2
    endloop
  endfacet
  facet normal 0 0 -1
    outer loop
      vertex 10.1 -0.700001 2.2
      vertex 10.5 -0.5 2.2
      vertex 10.3 -0.700001 2.2
    endloop
  endfacet
  facet normal -0 0 -1
    outer loop
      vertex 10.1 -0.900001 2.2
      vertex 7.5 -3.2 2.2
      vertex 10.1 -0.700001 2.2
    endloop
  endfacet
  facet normal 0 0 -1
    outer loop
      vertex 5.4 -3.2 2.2
      vertex 10.1 -0.700001 2.2
      vertex 7.5 -3.2 2.2
    endloop
  endfacet
  facet normal 0 0 -1
    outer loop
      vertex 2.2 -2.7 2.2
      vertex 5.4 -3.2 2.2
      vertex 2.2 -3.8 2.2
    endloop
  endfacet
  facet normal 0 0 -1
    outer loop
      vertex 0.4 -0.700001 2.2
      vertex 5.4 -3.2 2.2
      vertex 2.2 -2.7 2.2
    endloop
  endfacet
  facet normal 0 0 -1
    outer loop
      vertex 5.4 -3.2 2.2
      vertex 0.4 -0.700001 2.2
      vertex 10.1 -0.700001 2.2
    endloop
  endfacet
  facet normal 0 0 -1
    outer loop
      vertex 0.4 -0.700001 2.2
      vertex 2.2 -2.7 2.2
      vertex 0.4 -0.900001 2.2
    endloop
  endfacet
  facet normal 0 0 -1
    outer loop
      vertex 10.1 -0.700001 2.2
      vertex 0.4 -0.700001 2.2
      vertex 10.5 -0.5 2.2
    endloop
  endfacet
  facet normal 0 0 -1
    outer loop
      vertex 0 -0.5 2.2
      vertex 0.4 -0.700001 2.2
      vertex 0.2 -0.700001 2.2
    endloop
  endfacet
  facet normal 0 0 -1
    outer loop
      vertex 0.4 -0.700001 2.2
      vertex 0 -0.5 2.2
      vertex 10.5 -0.5 2.2
    endloop
  endfacet
  facet normal 0 0 -1
    outer loop
      vertex 0.2 -0.900001 2.2
      vertex 0 -0.5 2.2
      vertex 0.2 -0.700001 2.2
    endloop
  endfacet
  facet normal 0 0 -1
    outer loop
      vertex 0.4 -5.6 2.2
      vertex 2.2 -3.8 2.2
      vertex 0.4 -5.8 2.2
    endloop
  endfacet
  facet normal 0 0 -1
    outer loop
      vertex 0 -3.8 2.2
      vertex 0.4 -5.6 2.2
      vertex 0.2 -5.6 2.2
    endloop
  endfacet
  facet normal 0 0 -1
    outer loop
      vertex 0.4 -5.6 2.2
      vertex 0 -3.8 2.2
      vertex 2.2 -3.8 2.2
    endloop
  endfacet
  facet normal 0 0 -1
    outer loop
      vertex 0 -3.8 2.2
      vertex 0.2 -5.6 2.2
      vertex 0 -6 2.2
    endloop
  endfacet
  facet normal 0 -1 0
    outer loop
      vertex 0 -6 2.2
      vertex 10.5 -6 2.5
      vertex 0 -6 2.5
    endloop
  endfacet
  facet normal 0 -1 -0
    outer loop
      vertex 10.5 -6 2.5
      vertex 0 -6 2.2
      vertex 10.5 -6 2.2
    endloop
  endfacet
  facet normal -1 0 0
    outer loop
      vertex 2.2 -3.8 2.2
      vertex 2.2 -2.7 2.5
      vertex 2.2 -2.7 2.2
    endloop
  endfacet
  facet normal -1 -0 0
    outer loop
      vertex 2.2 -2.7 2.5
      vertex 2.2 -3.8 2.2
      vertex 2.2 -3.8 2.5
    endloop
  endfacet
  facet normal 0 1 -0
    outer loop
      vertex 2.2 -3.8 2.2
      vertex 0 -3.8 2.5
      vertex 2.2 -3.8 2.5
    endloop
  endfacet
  facet normal 0 1 0
    outer loop
      vertex 0 -3.8 2.5
      vertex 2.2 -3.8 2.2
      vertex 0 -3.8 2.2
    endloop
  endfacet
  facet normal 0 -1 0
    outer loop
      vertex 0 -2.7 2.2
      vertex 2.2 -2.7 2.5
      vertex 0 -2.7 2.5
    endloop
  endfacet
  facet normal 0 -1 -0
    outer loop
      vertex 2.2 -2.7 2.5
      vertex 0 -2.7 2.2
      vertex 2.2 -2.7 2.2
    endloop
  endfacet
  facet normal 1 -0 0
    outer loop
      vertex 5.4 -5.3 2.5
      vertex 5.4 -3.2 2.2
      vertex 5.4 -3.2 2.5
    endloop
  endfacet
  facet normal 1 0 0
    outer loop
      vertex 5.4 -3.2 2.2
      vertex 5.4 -5.3 2.5
      vertex 5.4 -5.3 2.2
    endloop
  endfacet
  facet normal -1 0 0
    outer loop
      vertex 7.5 -5.3 2.2
      vertex 7.5 -3.2 2.5
      vertex 7.5 -3.2 2.2
    endloop
  endfacet
  facet normal -1 -0 0
    outer loop
      vertex 7.5 -3.2 2.5
      vertex 7.5 -5.3 2.2
      vertex 7.5 -5.3 2.5
    endloop
  endfacet
  facet normal 0 -1 0
    outer loop
      vertex 5.4 -3.2 2.2
      vertex 7.5 -3.2 2.5
      vertex 5.4 -3.2 2.5
    endloop
  endfacet
  facet normal 0 -1 -0
    outer loop
      vertex 7.5 -3.2 2.5
      vertex 5.4 -3.2 2.2
      vertex 7.5 -3.2 2.2
    endloop
  endfacet
  facet normal 0 1 -0
    outer loop
      vertex 7.5 -5.3 2.2
      vertex 5.4 -5.3 2.5
      vertex 7.5 -5.3 2.5
    endloop
  endfacet
  facet normal 0 1 0
    outer loop
      vertex 5.4 -5.3 2.5
      vertex 7.5 -5.3 2.2
      vertex 5.4 -5.3 2.2
    endloop
  endfacet
  facet normal -1 0 0
    outer loop
      vertex 0.2 -5.8 2
      vertex 0.2 -5.6 2.2
      vertex 0.2 -5.6 2
    endloop
  endfacet
  facet normal -1 -0 0
    outer loop
      vertex 0.2 -5.6 2.2
      vertex 0.2 -5.8 2
      vertex 0.2 -5.8 2.2
    endloop
  endfacet
  facet normal 1 -0 0
    outer loop
      vertex 0.4 -5.8 2.2
      vertex 0.4 -5.6 2
      vertex 0.4 -5.6 2.2
    endloop
  endfacet
  facet normal 1 0 0
    outer loop
      vertex 0.4 -5.6 2
      vertex 0.4 -5.8 2.2
      vertex 0.4 -5.8 2
    endloop
  endfacet
  facet normal 0 1 -0
    outer loop
      vertex 0.4 -5.6 2
      vertex 0.2 -5.6 2.2
      vertex 0.4 -5.6 2.2
    endloop
  endfacet
  facet normal 0 1 0
    outer loop
      vertex 0.2 -5.6 2.2
      vertex 0.4 -5.6 2
      vertex 0.2 -5.6 2
    endloop
  endfacet
  facet normal 0 0 -1
    outer loop
      vertex 0.2 -5.8 2
      vertex 0.4 -5.6 2
      vertex 0.4 -5.8 2
    endloop
  endfacet
  facet normal -0 0 -1
    outer loop
      vertex 0.4 -5.6 2
      vertex 0.2 -5.8 2
      vertex 0.2 -5.6 2
    endloop
  endfacet
  facet normal 0 -1 0
    outer loop
      vertex 0.2 -5.8 2
      vertex 0.4 -5.8 2.2
      vertex 0.2 -5.8 2.2
    endloop
  endfacet
  facet normal 0 -1 -0
    outer loop
      vertex 0.4 -5.8 2.2
      vertex 0.2 -5.8 2
      vertex 0.4 -5.8 2
    endloop
  endfacet
  facet normal -1 0 0
    outer loop
      vertex 0.2 -0.900001 2
      vertex 0.2 -0.700001 2.2
      vertex 0.2 -0.700001 2
    endloop
  endfacet
  facet normal -1 -0 0
    outer loop
      vertex 0.2 -0.700001 2.2
      vertex 0.2 -0.900001 2
      vertex 0.2 -0.900001 2.2
    endloop
  endfacet
  facet normal 1 -0 0
    outer loop
      vertex 0.4 -0.900001 2.2
      vertex 0.4 -0.700001 2
      vertex 0.4 -0.700001 2.2
    endloop
  endfacet
  facet normal 1 0 0
    outer loop
      vertex 0.4 -0.700001 2
      vertex 0.4 -0.900001 2.2
      vertex 0.4 -0.900001 2
    endloop
  endfacet
  facet normal 0 0 -1
    outer loop
      vertex 0.2 -0.900001 2
      vertex 0.4 -0.700001 2
      vertex 0.4 -0.900001 2
    endloop
  endfacet
  facet normal -0 0 -1
    outer loop
      vertex 0.4 -0.700001 2
      vertex 0.2 -0.900001 2
      vertex 0.2 -0.700001 2
    endloop
  endfacet
  facet normal 0 -1 0
    outer loop
      vertex 0.2 -0.900001 2
      vertex 0.4 -0.900001 2.2
      vertex 0.2 -0.900001 2.2
    endloop
  endfacet
  facet normal 0 -1 -0
    outer loop
      vertex 0.4 -0.900001 2.2
      vertex 0.2 -0.900001 2
      vertex 0.4 -0.900001 2
    endloop
  endfacet
  facet normal 0 1 -0
    outer loop
      vertex 0.4 -0.700001 2
      vertex 0.2 -0.700001 2.2
      vertex 0.4 -0.700001 2.2
    endloop
  endfacet
  facet normal 0 1 0
    outer loop
      vertex 0.2 -0.700001 2.2
      vertex 0.4 -0.700001 2
      vertex 0.2 -0.700001 2
    endloop
  endfacet
  facet normal -1 0 0
    outer loop
      vertex 10.1 -5.8 2
      vertex 10.1 -5.6 2.2
      vertex 10.1 -5.6 2
    endloop
  endfacet
  facet normal -1 -0 0
    outer loop
      vertex 10.1 -5.6 2.2
      vertex 10.1 -5.8 2
      vertex 10.1 -5.8 2.2
    endloop
  endfacet
  facet normal 1 -0 0
    outer loop
      vertex 10.3 -5.8 2.2
      vertex 10.3 -5.6 2
      vertex 10.3 -5.6 2.2
    endloop
  endfacet
  facet normal 1 0 0
    outer loop
      vertex 10.3 -5.6 2
      vertex 10.3 -5.8 2.2
      vertex 10.3 -5.8 2
    endloop
  endfacet
  facet normal 0 0 -1
    outer loop
      vertex 10.1 -5.8 2
      vertex 10.3 -5.6 2
      vertex 10.3 -5.8 2
    endloop
  endfacet
  facet normal -0 0 -1
    outer loop
      vertex 10.3 -5.6 2
      vertex 10.1 -5.8 2
      vertex 10.1 -5.6 2
    endloop
  endfacet
  facet normal 0 -1 0
    outer loop
      vertex 10.1 -5.8 2
      vertex 10.3 -5.8 2.2
      vertex 10.1 -5.8 2.2
    endloop
  endfacet
  facet normal 0 -1 -0
    outer loop
      vertex 10.3 -5.8 2.2
      vertex 10.1 -5.8 2
      vertex 10.3 -5.8 2
    endloop
  endfacet
  facet normal 0 1 -0
    outer loop
      vertex 10.3 -5.6 2
      vertex 10.1 -5.6 2.2
      vertex 10.3 -5.6 2.2
    endloop
  endfacet
  facet normal 0 1 0
    outer loop
      vertex 10.1 -5.6 2.2
      vertex 10.3 -5.6 2
      vertex 10.1 -5.6 2
    endloop
  endfacet
  facet normal -1 0 0
    outer loop
      vertex 10.1 -0.900001 2
      vertex 10.1 -0.700001 2.2
      vertex 10.1 -0.700001 2
    endloop
  endfacet
  facet normal -1 -0 0
    outer loop
      vertex 10.1 -0.700001 2.2
      vertex 10.1 -0.900001 2
      vertex 10.1 -0.900001 2.2
    endloop
  endfacet
  facet normal 1 -0 0
    outer loop
      vertex 10.3 -0.900001 2.2
      vertex 10.3 -0.700001 2
      vertex 10.3 -0.700001 2.2
    endloop
  endfacet
  facet normal 1 0 0
    outer loop
      vertex 10.3 -0.700001 2
      vertex 10.3 -0.900001 2.2
      vertex 10.3 -0.900001 2
    endloop
  endfacet
  facet normal 0 1 -0
    outer loop
      vertex 10.3 -0.700001 2
      vertex 10.1 -0.700001 2.2
      vertex 10.3 -0.700001 2.2
    endloop
  endfacet
  facet normal 0 1 0
    outer loop
      vertex 10.1 -0.700001 2.2
      vertex 10.3 -0.700001 2
      vertex 10.1 -0.700001 2
    endloop
  endfacet
  facet normal 0 0 -1
    outer loop
      vertex 10.1 -0.900001 2
      vertex 10.3 -0.700001 2
      vertex 10.3 -0.900001 2
    endloop
  endfacet
  facet normal -0 0 -1
    outer loop
      vertex 10.3 -0.700001 2
      vertex 10.1 -0.900001 2
      vertex 10.1 -0.700001 2
    endloop
  endfacet
  facet normal 0 -1 0
    outer loop
      vertex 10.1 -0.900001 2
      vertex 10.3 -0.900001 2.2
      vertex 10.1 -0.900001 2.2
    endloop
  endfacet
  facet normal 0 -1 -0
    outer loop
      vertex 10.3 -0.900001 2.2
      vertex 10.1 -0.900001 2
      vertex 10.3 -0.900001 2
    endloop
  endfacet
endsolid OpenSCAD_Model
